<?xml version="1.0" encoding="UTF-8"?>
<!--Generator: Apple Native CoreSVG 341-->
<!DOCTYPE svg
PUBLIC "-//W3C//DTD SVG 1.1//EN"
       "http://www.w3.org/Graphics/SVG/1.1/DTD/svg11.dtd">
<svg version="1.1" xmlns="http://www.w3.org/2000/svg" xmlns:xlink="http://www.w3.org/1999/xlink" viewBox="0 0 1024 1024">
 <g/>
 <g id="latin">
  <g>
   <path d="M555.185 668.003v17.9629H396.424v-17.9629c39.0957-5.01855 44.9072-14.2646 31.1709-53.3604l-20.8687-59.7002H276.231l-19.2837 56.002c-14.5288 42.5303-9.77393 51.5107 30.6426 57.0586v17.9629H170.567v-17.9629c31.9634-4.49121 39.0957-12.1514 56.002-58.3799l112.268-305.633h48.6055l113.853 311.181C516.089 655.852 524.542 663.776 555.185 668.003zM340.951 366.596L284.156 531.961h114.646L340.951 366.596z" fill="#FFFFFF" style="fill:#FFFFFF;"/>
   <path d="M563.095 625.473c0-41.4727 29.5859-67.0957 104.607-83.21l58.3789-12.6797v-22.4536c0-47.5488-25.0947-64.4551-63.6621-64.4551c-15.8496 0-30.6426 3.16992-42.2656 8.98145c10.5664 4.75488 17.9629 15.5854 17.9629 28.5293c0 17.6987-14.2646 30.9067-33.0205 30.9067c-18.4912 0-33.0195-12.9438-33.0195-31.1709c0-36.1899 47.8125-62.8701 111.739-62.8701c64.7197 0 105.4 26.416 105.4 85.5879v128.117c0 22.9824 12.1514 31.6992 27.7363 31.6992c5.01953 0 9.77441-0.527344 13.208-1.84863v16.6416c-9.50977 6.60449-26.1514 12.6797-46.2275 12.6797c-28.2656 0-50.1904-13.7363-56.002-38.8311c-14.001 22.7178-46.7568 40.417-87.1729 40.417C595.586 691.514 563.095 664.305 563.095 625.473zM674.306 659.55c22.7178 0 41.209-9.24512 51.7754-25.3594v-83.21l-30.9062 6.60352c-50.1904 11.3594-67.8896 28.2656-67.8896 57.0586C627.285 643.172 647.361 659.55 674.306 659.55z" fill="#FFFFFF" style="fill:#FFFFFF;"/>
  </g>
 </g>
</svg>
